<svg width="68" height="68" viewBox="0 0 68 68" fill="none" xmlns="http://www.w3.org/2000/svg">
<circle cx="36.5488" cy="38" r="24" fill="#E2E2E2"/>
<mask id="path-2-outside-1_79_12444" maskUnits="userSpaceOnUse" x="27.5488" y="12" width="35" height="52" fill="black">
<rect fill="white" x="27.5488" y="12" width="35" height="52"/>
<path fill-rule="evenodd" clip-rule="evenodd" d="M31.9508 14.44C31.0453 16.7858 30.5488 19.3349 30.5488 22C30.5488 29.435 34.4126 35.9675 40.2418 39.6992C33.8586 43.3019 29.5488 50.1476 29.5488 58C29.5488 59.0283 29.6227 60.0393 29.7655 61.028C31.9165 61.6606 34.193 62 36.5488 62C49.8037 62 60.5488 51.2548 60.5488 38C60.5488 24.7452 49.8037 14 36.5488 14C34.9762 14 33.439 14.1513 31.9508 14.44Z"/>
</mask>
<path fill-rule="evenodd" clip-rule="evenodd" d="M31.9508 14.44C31.0453 16.7858 30.5488 19.3349 30.5488 22C30.5488 29.435 34.4126 35.9675 40.2418 39.6992C33.8586 43.3019 29.5488 50.1476 29.5488 58C29.5488 59.0283 29.6227 60.0393 29.7655 61.028C31.9165 61.6606 34.193 62 36.5488 62C49.8037 62 60.5488 51.2548 60.5488 38C60.5488 24.7452 49.8037 14 36.5488 14C34.9762 14 33.439 14.1513 31.9508 14.44Z" fill="#E2E2E2"/>
<path d="M31.9508 14.44L31.627 12.7711L30.7036 12.9503L30.3648 13.8278L31.9508 14.44ZM40.2418 39.6992L41.0774 41.1796L43.538 39.7908L41.1584 38.2674L40.2418 39.6992ZM29.7655 61.028L28.083 61.271L28.2389 62.351L29.2859 62.6589L29.7655 61.028ZM30.3648 13.8278C29.3851 16.3658 28.8488 19.1223 28.8488 22H32.2488C32.2488 19.5475 32.7054 17.2057 33.5367 15.0522L30.3648 13.8278ZM28.8488 22C28.8488 30.0386 33.0285 37.0999 39.3252 41.1309L41.1584 38.2674C35.7967 34.835 32.2488 28.8313 32.2488 22H28.8488ZM39.4062 38.2187C32.5107 42.1106 27.8488 49.5098 27.8488 58H31.2488C31.2488 50.7855 35.2065 44.4932 41.0774 41.1796L39.4062 38.2187ZM27.8488 58C27.8488 59.1098 27.9286 60.202 28.083 61.271L31.4481 60.785C31.3169 59.8765 31.2488 58.9467 31.2488 58H27.8488ZM36.5488 60.3C34.3571 60.3 32.242 59.9843 30.2452 59.397L29.2859 62.6589C31.591 63.3368 34.029 63.7 36.5488 63.7V60.3ZM58.8488 38C58.8488 50.3159 48.8648 60.3 36.5488 60.3V63.7C50.7425 63.7 62.2488 52.1937 62.2488 38H58.8488ZM36.5488 15.7C48.8648 15.7 58.8488 25.684 58.8488 38H62.2488C62.2488 23.8063 50.7425 12.3 36.5488 12.3V15.7ZM32.2746 16.1089C33.6566 15.8407 35.0855 15.7 36.5488 15.7V12.3C34.867 12.3 33.2213 12.4618 31.627 12.7711L32.2746 16.1089Z" fill="#41414D" mask="url(#path-2-outside-1_79_12444)"/>
<path d="M38.5488 39.5L61 39" stroke="#41414D" stroke-width="1.7"/>
<path d="M43.0482 39.5C39.5482 43.1667 33.0482 53.1 35.0482 63.5" stroke="#41414D" stroke-width="1.7"/>
<path d="M48.0486 39.5C45.382 43.6667 41.0005 52.8 43.0005 62" stroke="#41414D" stroke-width="1.7"/>
<path d="M52.549 39.5C51.049 44 48.7998 53 49.9998 59" stroke="#41414D" stroke-width="1.7"/>
<path d="M57.0488 39.5C56.5488 42.8333 55.6002 47.4 56.0002 53" stroke="#41414D" stroke-width="1.7"/>
<path d="M42.5488 40C39.2053 35.875 32.9958 24.7 34.9064 13" stroke="#41414D" stroke-width="1.7"/>
<path d="M47.5488 40C45.3163 35.3125 41.2699 23.35 42.9443 13" stroke="#41414D" stroke-width="1.7"/>
<path d="M52.5488 40C51.1848 34.8571 48.7295 22.8571 49.8208 16" stroke="#41414D" stroke-width="1.7"/>
<path d="M57.5489 40C56.6395 36.2745 54.7733 28.2588 55.5008 22" stroke="#41414D" stroke-width="1.7"/>
<mask id="path-13-inside-2_79_12444" fill="white">
<path fill-rule="evenodd" clip-rule="evenodd" d="M7 46V11H55.5484V20.0017C55.5484 26.5658 50.2271 31.8871 43.663 31.8871H35.2258C33.6669 31.8871 32.4032 33.1508 32.4032 34.7097C32.4032 40.9452 27.3484 46 21.1129 46H7ZM14.9032 18.9032H19.4194C23.1606 18.9032 26.1935 21.9361 26.1935 25.6774H21.6774C17.9361 25.6774 14.9032 22.6445 14.9032 18.9032ZM40.871 18.9032H45.3871C45.3871 22.6445 42.3542 25.6774 38.6129 25.6774H34.0968C34.0968 21.9361 37.1297 18.9032 40.871 18.9032Z"/>
</mask>
<path fill-rule="evenodd" clip-rule="evenodd" d="M7 46V11H55.5484V20.0017C55.5484 26.5658 50.2271 31.8871 43.663 31.8871H35.2258C33.6669 31.8871 32.4032 33.1508 32.4032 34.7097C32.4032 40.9452 27.3484 46 21.1129 46H7ZM14.9032 18.9032H19.4194C23.1606 18.9032 26.1935 21.9361 26.1935 25.6774H21.6774C17.9361 25.6774 14.9032 22.6445 14.9032 18.9032ZM40.871 18.9032H45.3871C45.3871 22.6445 42.3542 25.6774 38.6129 25.6774H34.0968C34.0968 21.9361 37.1297 18.9032 40.871 18.9032Z" fill="#41414D"/>
<path d="M7 11V10H6V11H7ZM7 46H6V47H7V46ZM55.5484 11H56.5484V10H55.5484V11ZM14.9032 18.9032V17.9032H13.9032V18.9032H14.9032ZM26.1935 25.6774V26.6774H27.1935V25.6774H26.1935ZM45.3871 18.9032H46.3871V17.9032H45.3871V18.9032ZM34.0968 25.6774H33.0968V26.6774H34.0968V25.6774ZM6 11V46H8V11H6ZM55.5484 10H7V12H55.5484V10ZM56.5484 20.0017V11H54.5484V20.0017H56.5484ZM43.663 32.8871C50.7794 32.8871 56.5484 27.1181 56.5484 20.0017H54.5484C54.5484 26.0136 49.6748 30.8871 43.663 30.8871V32.8871ZM35.2258 32.8871H43.663V30.8871H35.2258V32.8871ZM33.4032 34.7097C33.4032 33.7031 34.2192 32.8871 35.2258 32.8871V30.8871C33.1147 30.8871 31.4032 32.5985 31.4032 34.7097H33.4032ZM21.1129 47C27.9007 47 33.4032 41.4974 33.4032 34.7097H31.4032C31.4032 40.3929 26.7961 45 21.1129 45V47ZM7 47H21.1129V45H7V47ZM19.4194 17.9032H14.9032V19.9032H19.4194V17.9032ZM27.1935 25.6774C27.1935 21.3838 23.7129 17.9032 19.4194 17.9032V19.9032C22.6084 19.9032 25.1935 22.4884 25.1935 25.6774H27.1935ZM21.6774 26.6774H26.1935V24.6774H21.6774V26.6774ZM13.9032 18.9032C13.9032 23.1968 17.3839 26.6774 21.6774 26.6774V24.6774C18.4884 24.6774 15.9032 22.0922 15.9032 18.9032H13.9032ZM45.3871 17.9032H40.871V19.9032H45.3871V17.9032ZM38.6129 26.6774C42.9065 26.6774 46.3871 23.1968 46.3871 18.9032H44.3871C44.3871 22.0922 41.8019 24.6774 38.6129 24.6774V26.6774ZM34.0968 26.6774H38.6129V24.6774H34.0968V26.6774ZM40.871 17.9032C36.5774 17.9032 33.0968 21.3838 33.0968 25.6774H35.0968C35.0968 22.4884 37.682 19.9032 40.871 19.9032V17.9032Z" fill="#E2E2E2" mask="url(#path-13-inside-2_79_12444)"/>
</svg>
