<svg width="22" height="22" viewBox="0 0 22 22" fill="none" xmlns="http://www.w3.org/2000/svg">
<g clip-path="url(#clip0_79_12518)">
<mask id="path-1-inside-1_79_12518" fill="white">
<path fill-rule="evenodd" clip-rule="evenodd" d="M10.373 3.40283L-1 9.35693L4.5291 19.9181L22.4019 10.5612L16.8728 -6.09939e-06L13.6226 1.70157C14.0921 2.59886 13.7455 3.70694 12.8483 4.17667C11.951 4.6464 10.8429 4.29994 10.373 3.40283Z"/>
</mask>
<path fill-rule="evenodd" clip-rule="evenodd" d="M10.373 3.40283L-1 9.35693L4.5291 19.9181L22.4019 10.5612L16.8728 -6.09939e-06L13.6226 1.70157C14.0921 2.59886 13.7455 3.70694 12.8483 4.17667C11.951 4.6464 10.8429 4.29994 10.373 3.40283Z" fill="#373741"/>
<path d="M-1 9.35693L-1.46381 8.471L-2.34975 8.93481L-1.88593 9.82075L-1 9.35693ZM10.373 3.40283L11.2588 2.93884L10.795 2.05317L9.90919 2.51689L10.373 3.40283ZM4.5291 19.9181L3.64317 20.3819L4.10698 21.2679L4.99291 20.8041L4.5291 19.9181ZM22.4019 10.5612L22.8657 11.4471L23.7516 10.9833L23.2878 10.0974L22.4019 10.5612ZM16.8728 -6.09939e-06L17.7587 -0.463819L17.2949 -1.34975L16.409 -0.885939L16.8728 -6.09939e-06ZM13.6226 1.70157L13.1588 0.815632L12.273 1.27935L12.7366 2.1652L13.6226 1.70157ZM-0.536188 10.2429L10.8368 4.28876L9.90919 2.51689L-1.46381 8.471L-0.536188 10.2429ZM5.41503 19.4543L-0.114067 8.89312L-1.88593 9.82075L3.64317 20.3819L5.41503 19.4543ZM21.9381 9.67526L4.06529 19.0322L4.99291 20.8041L22.8657 11.4471L21.9381 9.67526ZM15.9869 0.463806L21.516 11.025L23.2878 10.0974L17.7587 -0.463819L15.9869 0.463806ZM14.0864 2.5875L17.3366 0.885927L16.409 -0.885939L13.1588 0.815632L14.0864 2.5875ZM12.7366 2.1652C12.9501 2.57324 12.7925 3.07713 12.3845 3.29074L13.3121 5.0626C14.6986 4.33674 15.2342 2.62448 14.5086 1.23793L12.7366 2.1652ZM12.3845 3.29074C11.9764 3.50434 11.4725 3.34679 11.2588 2.93884L9.48716 3.86681C10.2133 5.25308 11.9256 5.78846 13.3121 5.0626L12.3845 3.29074Z" fill="white" mask="url(#path-1-inside-1_79_12518)"/>
<path d="M13.0608 4.58289L16.4633 11.0821" stroke="white" stroke-width="0.87" stroke-linejoin="bevel" stroke-dasharray="2 2"/>
<mask id="path-4-inside-2_79_12518" fill="white">
<path fill-rule="evenodd" clip-rule="evenodd" d="M18 9C18 10.1046 17.1046 11 16 11C14.8954 11 14 10.1046 14 9H0V22H14C14 20.8954 14.8954 20 16 20C17.1046 20 18 20.8954 18 22H22V9H18Z"/>
</mask>
<path fill-rule="evenodd" clip-rule="evenodd" d="M18 9C18 10.1046 17.1046 11 16 11C14.8954 11 14 10.1046 14 9H0V22H14C14 20.8954 14.8954 20 16 20C17.1046 20 18 20.8954 18 22H22V9H18Z" fill="#373741"/>
<path d="M18 9V8H17V9H18ZM14 9H15V8H14V9ZM0 9V8H-1V9H0ZM0 22H-1V23H0V22ZM14 22V23H15V22H14ZM18 22H17V23H18V22ZM22 22V23H23V22H22ZM22 9H23V8H22V9ZM16 12C17.6569 12 19 10.6569 19 9H17C17 9.55229 16.5523 10 16 10V12ZM13 9C13 10.6569 14.3431 12 16 12V10C15.4477 10 15 9.55228 15 9H13ZM0 10H14V8H0V10ZM1 22V9H-1V22H1ZM14 21H0V23H14V21ZM15 22C15 21.4477 15.4477 21 16 21V19C14.3431 19 13 20.3431 13 22H15ZM16 21C16.5523 21 17 21.4477 17 22H19C19 20.3431 17.6569 19 16 19V21ZM22 21H18V23H22V21ZM21 9V22H23V9H21ZM18 10H22V8H18V10Z" fill="white" mask="url(#path-4-inside-2_79_12518)"/>
<path d="M16 11.5V19.5" stroke="white" stroke-width="0.87" stroke-linejoin="bevel" stroke-dasharray="2 2"/>
</g>
<defs>
<clipPath id="clip0_79_12518">
<rect width="22" height="22" fill="white"/>
</clipPath>
</defs>
</svg>
