<svg width="48" height="48" viewBox="0 0 48 48" fill="none" xmlns="http://www.w3.org/2000/svg">
<mask id="path-1-inside-1_6733_1771" fill="white">
<path fill-rule="evenodd" clip-rule="evenodd" d="M14.7925 16.0356C12.698 18.2251 12.698 21.7749 14.7925 23.9644L24.3641 33.9699L31.9491 26.041L31.9486 26.0405L33.9368 23.9622C36.0313 21.7727 36.0313 18.2228 33.9368 16.0333C31.8422 13.8438 28.4463 13.8438 26.3518 16.0333L24.3635 18.1116L22.3775 16.0356C20.283 13.8461 16.8871 13.8461 14.7925 16.0356Z"/>
</mask>
<path d="M24.3641 33.9699L23.1889 35.1983L24.3641 36.4268L25.5392 35.1983L24.3641 33.9699ZM31.9491 26.041L33.1242 27.2695L34.2994 26.041L33.1242 24.8126L31.9491 26.041ZM31.9486 26.0405L30.7734 24.8121L29.5983 26.0405L30.7734 27.2689L31.9486 26.0405ZM26.3518 16.0333L27.5269 17.2617L26.3518 16.0333ZM24.3635 18.1116L23.1884 19.34L24.3635 20.5685L25.5387 19.34L24.3635 18.1116ZM15.9677 22.736C14.5221 21.225 14.5221 18.775 15.9677 17.264L13.6174 14.8071C10.8738 17.6751 10.8738 22.3249 13.6174 25.1929L15.9677 22.736ZM25.5392 32.7415L15.9677 22.736L13.6174 25.1929L23.1889 35.1983L25.5392 32.7415ZM30.7739 24.8126L23.1889 32.7415L25.5392 35.1983L33.1242 27.2695L30.7739 24.8126ZM30.7734 27.2689L30.7739 27.2695L33.1242 24.8126L33.1237 24.8121L30.7734 27.2689ZM32.7616 22.7337L30.7734 24.8121L33.1237 27.2689L35.1119 25.1906L32.7616 22.7337ZM32.7616 17.2617C34.2071 18.7728 34.2072 21.2227 32.7616 22.7337L35.1119 25.1906C37.8555 22.3226 37.8555 17.6728 35.1119 14.8049L32.7616 17.2617ZM27.5269 17.2617C28.9724 15.7506 31.3161 15.7506 32.7616 17.2617L35.1119 14.8049C32.3684 11.9369 27.9202 11.9369 25.1766 14.8049L27.5269 17.2617ZM25.5387 19.34L27.5269 17.2617L25.1766 14.8049L23.1884 16.8832L25.5387 19.34ZM21.2024 17.264L23.1884 19.34L25.5387 16.8832L23.5527 14.8071L21.2024 17.264ZM15.9677 17.264C17.4132 15.7529 19.7568 15.7529 21.2024 17.264L23.5527 14.8071C20.8091 11.9392 16.3609 11.9392 13.6174 14.8071L15.9677 17.264Z" fill="black" mask="url(#path-1-inside-1_6733_1771)"/>
</svg>
