<svg width="23" height="22" viewBox="0 0 23 22" fill="none" xmlns="http://www.w3.org/2000/svg">
<circle cx="11.0016" cy="17.4857" r="4.21841" fill="white"/>
<mask id="path-2-inside-1_79_12502" fill="white">
<path fill-rule="evenodd" clip-rule="evenodd" d="M11.0028 0C6.53949 0 2.92124 3.61826 2.92124 8.0816V14.744C2.92124 15.0644 2.76628 15.3634 2.51412 15.561C1.6533 16.2354 0.874765 17.01 0.196091 17.8673C-0.286672 18.4772 0.180709 19.3203 0.958497 19.3203H21.0447C21.8225 19.3203 22.2899 18.4772 21.8071 17.8673C21.129 17.0108 20.3513 16.2368 19.4914 15.5628C19.2393 15.3652 19.0844 15.0662 19.0844 14.746V8.08159C19.0844 3.61825 15.4662 0 11.0028 0Z"/>
</mask>
<path fill-rule="evenodd" clip-rule="evenodd" d="M11.0028 0C6.53949 0 2.92124 3.61826 2.92124 8.0816V14.744C2.92124 15.0644 2.76628 15.3634 2.51412 15.561C1.6533 16.2354 0.874765 17.01 0.196091 17.8673C-0.286672 18.4772 0.180709 19.3203 0.958497 19.3203H21.0447C21.8225 19.3203 22.2899 18.4772 21.8071 17.8673C21.129 17.0108 20.3513 16.2368 19.4914 15.5628C19.2393 15.3652 19.0844 15.0662 19.0844 14.746V8.08159C19.0844 3.61825 15.4662 0 11.0028 0Z" fill="#373741"/>
<path d="M21.8071 17.8673L20.631 18.7984L21.8071 17.8673ZM2.51412 15.561L1.58905 14.3802L2.51412 15.561ZM4.42124 8.0816C4.42124 4.44668 7.36792 1.5 11.0028 1.5V-1.5C5.71106 -1.5 1.42124 2.78983 1.42124 8.0816H4.42124ZM4.42124 14.744V8.0816H1.42124V14.744H4.42124ZM1.37218 18.7984C1.97735 18.0339 2.67162 17.3431 3.4392 16.7418L1.58905 14.3802C0.634973 15.1277 -0.227815 15.9861 -0.979996 16.9363L1.37218 18.7984ZM21.0447 17.8203H0.958497V20.8203H21.0447V17.8203ZM18.566 16.7434C19.3328 17.3443 20.0264 18.0346 20.631 18.7984L22.9832 16.9363C22.2317 15.987 21.3697 15.1292 20.4167 14.3822L18.566 16.7434ZM17.5844 8.08159V14.746H20.5844V8.08159H17.5844ZM11.0028 1.5C14.6377 1.5 17.5844 4.44668 17.5844 8.08159H20.5844C20.5844 2.78982 16.2946 -1.5 11.0028 -1.5V1.5ZM20.4167 14.3822C20.5035 14.4503 20.5844 14.5758 20.5844 14.746H17.5844C17.5844 15.5566 17.9751 16.2802 18.566 16.7434L20.4167 14.3822ZM21.0447 20.8203C22.886 20.8203 24.3604 18.6761 22.9832 16.9363L20.631 18.7984C20.5682 18.7191 20.5151 18.6005 20.5049 18.4598C20.4952 18.326 20.5267 18.2069 20.5763 18.1143C20.6761 17.9279 20.8647 17.8203 21.0447 17.8203V20.8203ZM-0.979996 16.9363C-2.35726 18.6761 -0.882757 20.8203 0.958497 20.8203V17.8203C1.13844 17.8203 1.32705 17.9279 1.42687 18.1143C1.47647 18.2069 1.50795 18.326 1.49827 18.4598C1.48809 18.6005 1.43496 18.7191 1.37218 18.7984L-0.979996 16.9363ZM1.42124 14.744C1.42124 14.5738 1.50216 14.4483 1.58905 14.3802L3.4392 16.7418C4.03039 16.2786 4.42124 15.5549 4.42124 14.744H1.42124Z" fill="white" mask="url(#path-2-inside-1_79_12502)"/>
<circle cx="9" cy="6" r="2" fill="white"/>
</svg>
