<svg width="54" height="54" viewBox="0 0 54 54" fill="none" xmlns="http://www.w3.org/2000/svg">
<mask id="path-1-inside-1_99_17781" fill="white">
<path fill-rule="evenodd" clip-rule="evenodd" d="M51.7617 38.229C47.5002 47.5352 38.1052 54 27.2003 54C17.7361 54 9.40922 49.1306 4.58838 41.7604C12.379 36.8446 21.6074 34 31.5001 34C38.7061 34 45.5596 35.5093 51.7617 38.229Z"/>
</mask>
<path fill-rule="evenodd" clip-rule="evenodd" d="M51.7617 38.229C47.5002 47.5352 38.1052 54 27.2003 54C17.7361 54 9.40922 49.1306 4.58838 41.7604C12.379 36.8446 21.6074 34 31.5001 34C38.7061 34 45.5596 35.5093 51.7617 38.229Z" fill="#41414D"/>
<path d="M51.7617 38.229L52.6709 38.6453L53.094 37.7213L52.1633 37.3132L51.7617 38.229ZM4.58838 41.7604L4.05474 40.9147L3.19508 41.4572L3.75151 42.3078L4.58838 41.7604ZM50.8525 37.8126C46.7478 46.7764 37.6998 53 27.2003 53V55C38.5106 55 48.2526 48.2939 52.6709 38.6453L50.8525 37.8126ZM27.2003 53C18.0876 53 10.0692 48.3128 5.42525 41.213L3.75151 42.3078C8.74923 49.9484 17.3846 55 27.2003 55V53ZM5.12202 42.6061C12.7576 37.7881 21.8018 35 31.5001 35V33C21.413 33 12.0004 35.901 4.05474 40.9147L5.12202 42.6061ZM31.5001 35C38.5653 35 45.2822 36.4796 51.3601 39.1448L52.1633 37.3132C45.837 34.539 38.847 33 31.5001 33V35Z" fill="#E2E2E2" mask="url(#path-1-inside-1_99_17781)"/>
<circle cx="27" cy="27" r="26.5" stroke="#E2E2E2"/>
<rect x="0.5" y="13" width="9" height="6" rx="1.5" fill="#41414D" stroke="#E2E2E2" stroke-linejoin="bevel"/>
<path d="M9.5 16V3L16 9L18 7" stroke="#E2E2E2" stroke-linejoin="bevel"/>
<path d="M9.5 15.5V6.5L16 12.5L18 10.5" stroke="#E2E2E2" stroke-linejoin="bevel"/>
<rect x="4.5" y="25" width="9" height="6" rx="1.5" fill="#E2E2E2" stroke="#E2E2E2" stroke-linejoin="bevel"/>
<path d="M13.5 28V15L20 21L22 19" stroke="#E2E2E2" stroke-linejoin="bevel"/>
<path d="M31.5 24C32.1667 20.6667 35.3 14 42.5 14" stroke="#E2E2E2"/>
<rect x="18.5" y="28.5" width="25" height="14" fill="#41414D" stroke="#E2E2E2"/>
<rect x="22.5" y="24.5" width="17" height="4" fill="#41414D" stroke="#E2E2E2"/>
<path d="M31 24.5C31.3333 20.3333 31.5 13.5 36 8" stroke="#E2E2E2"/>
<path d="M31 24C30.3333 20.6667 27.2 14 20 14" stroke="#E2E2E2"/>
<path d="M31 24C30.6667 19.9596 30.5 13.3333 26 8" stroke="#E2E2E2"/>
</svg>
