<svg width="20" height="20" viewBox="0 0 20 20" fill="none" xmlns="http://www.w3.org/2000/svg">
<ellipse cx="9.5" cy="17" rx="5.5" ry="2" fill="white"/>
<path d="M9.5 18L7 14.5H12L9.5 18Z" fill="#41414D"/>
<path fill-rule="evenodd" clip-rule="evenodd" d="M9.5 1.86081C6.39549 1.86081 3.87879 4.32603 3.87879 7.36704C3.87879 8.15756 4.04861 8.94409 4.35717 9.67646L4.35572 9.67857L4.36554 9.69624C4.7193 10.528 8.84528 16.3897 9.50068 16.9964C10.1532 16.3914 14.2794 10.5293 14.6325 9.70086L14.6446 9.67906L14.6428 9.67646C14.9514 8.94409 15.1212 8.15756 15.1212 7.36704C15.1212 4.32603 12.6045 1.86081 9.5 1.86081ZM15.3755 10.0047L15.4434 10.0325C15.0501 10.9553 10.5903 17.3164 9.86276 18H9.1386C8.40788 17.3144 3.9484 10.9538 3.55433 10.0273L3.63045 9.99621L3.64827 9.96303L3.54484 10.0048C3.19546 9.17558 3 8.27781 3 7.36704C3 3.85062 5.91015 1 9.5 1C13.0899 1 16 3.85062 16 7.36704C16 8.27781 15.8045 9.17558 15.4552 10.0048L15.3535 9.96373L15.3755 10.0047Z" fill="white"/>
<circle cx="9.5" cy="7.5" r="2.065" stroke="white" stroke-width="0.87"/>
</svg>
