<svg width="54" height="54" viewBox="0 0 54 54" fill="none" xmlns="http://www.w3.org/2000/svg">
<mask id="path-1-inside-1_99_17787" fill="white">
<path fill-rule="evenodd" clip-rule="evenodd" d="M2.33838 36.3391C9.41729 32.3005 17.5686 30 26.2438 30C35.4624 30 44.0894 32.5977 51.4666 37.1182C47.5625 47.0168 38.1011 54 27.0493 54C15.7097 54 6.04443 46.6483 2.33838 36.3391Z"/>
</mask>
<path fill-rule="evenodd" clip-rule="evenodd" d="M2.33838 36.3391C9.41729 32.3005 17.5686 30 26.2438 30C35.4624 30 44.0894 32.5977 51.4666 37.1182C47.5625 47.0168 38.1011 54 27.0493 54C15.7097 54 6.04443 46.6483 2.33838 36.3391Z" fill="#41414D"/>
<path d="M2.33838 36.3391L1.84284 35.4705L1.11314 35.8869L1.39734 36.6774L2.33838 36.3391ZM51.4666 37.1182L52.3968 37.4851L52.7049 36.7042L51.9891 36.2656L51.4666 37.1182ZM2.83392 37.2077C9.76674 33.2525 17.7479 31 26.2438 31V29C17.3893 29 9.06784 31.3486 1.84284 35.4705L2.83392 37.2077ZM26.2438 31C35.2716 31 43.7186 33.5433 50.9441 37.9709L51.9891 36.2656C44.4601 31.6521 35.6532 29 26.2438 29V31ZM50.5363 36.7513C46.7732 46.2923 37.6647 53 27.0493 53V55C38.5375 55 48.3517 47.7412 52.3968 37.4851L50.5363 36.7513ZM27.0493 53C16.1576 53 6.85178 45.9382 3.27942 36.0008L1.39734 36.6774C5.23708 47.3585 15.2618 55 27.0493 55V53Z" fill="#E2E2E2" mask="url(#path-1-inside-1_99_17787)"/>
<circle cx="27" cy="27" r="26.5" stroke="#E2E2E2"/>
<path d="M43.5 40.5C43.5 41.7652 42.6102 43.005 40.967 43.9564C39.3367 44.9002 37.0514 45.5 34.5 45.5C31.9486 45.5 29.6633 44.9002 28.033 43.9564C26.3898 43.005 25.5 41.7652 25.5 40.5C25.5 39.2348 26.3898 37.995 28.033 37.0436C29.6633 36.0998 31.9486 35.5 34.5 35.5C37.0514 35.5 39.3367 36.0998 40.967 37.0436C42.6102 37.995 43.5 39.2348 43.5 40.5Z" fill="#E2E2E2" stroke="#E2E2E2"/>
<mask id="path-5-inside-2_99_17787" fill="white">
<path fill-rule="evenodd" clip-rule="evenodd" d="M4 13.9401C5.91354 10.396 8.58177 7.33994 11.7823 5H21V35H4V13.9401Z"/>
</mask>
<path fill-rule="evenodd" clip-rule="evenodd" d="M4 13.9401C5.91354 10.396 8.58177 7.33994 11.7823 5H21V35H4V13.9401Z" fill="#41414D"/>
<path d="M4 13.9401L3.12007 13.465L3 13.6874V13.9401H4ZM11.7823 5V4H11.4557L11.1921 4.19274L11.7823 5ZM21 5H22V4H21V5ZM21 35V36H22V35H21ZM4 35H3V36H4V35ZM4.87993 14.4152C6.72322 11.0012 9.29275 8.05889 12.3725 5.80726L11.1921 4.19274C7.87079 6.62098 5.10386 9.79079 3.12007 13.465L4.87993 14.4152ZM11.7823 6H21V4H11.7823V6ZM20 5V35H22V5H20ZM21 34H4V36H21V34ZM5 35V13.9401H3V35H5Z" fill="#E2E2E2" mask="url(#path-5-inside-2_99_17787)"/>
<mask id="path-7-inside-3_99_17787" fill="white">
<path fill-rule="evenodd" clip-rule="evenodd" d="M5.83945 43C2.62204 38.5222 0.720703 32.9887 0.720703 26.9999C0.720703 22.2871 1.89813 17.8563 3.96777 14H15V43H5.83945Z"/>
</mask>
<path fill-rule="evenodd" clip-rule="evenodd" d="M5.83945 43C2.62204 38.5222 0.720703 32.9887 0.720703 26.9999C0.720703 22.2871 1.89813 17.8563 3.96777 14H15V43H5.83945Z" fill="#41414D"/>
<path d="M5.83945 43L5.02734 43.5835L5.3266 44H5.83945V43ZM3.96777 14V13H3.36954L3.08665 13.5271L3.96777 14ZM15 14H16V13H15V14ZM15 43V44H16V43H15ZM6.65155 42.4165C3.55334 38.1046 1.7207 32.7743 1.7207 26.9999H-0.279297C-0.279297 33.2032 1.69073 38.9398 5.02734 43.5835L6.65155 42.4165ZM1.7207 26.9999C1.7207 22.4553 2.85579 18.1866 4.84889 14.4729L3.08665 13.5271C0.940469 17.526 -0.279297 22.1189 -0.279297 26.9999H1.7207ZM3.96777 15H15V13H3.96777V15ZM14 14V43H16V14H14ZM15 42H5.83945V44H15V42Z" fill="#E2E2E2" mask="url(#path-7-inside-3_99_17787)"/>
<path d="M24.5 25.5L34.5 39.5L36 38L39.5 32.5L44 26.5L45.5 22.5L45 19L44 16L42 14L39 11.5L35 11L30 11.5L26.5 14L24.5 17.5L23.5 21.5L24.5 25.5Z" fill="#41414D"/>
<path fill-rule="evenodd" clip-rule="evenodd" d="M34.5 11.523C29.0074 11.523 24.5548 15.8845 24.5548 21.2648C24.5548 22.6634 24.8552 24.0549 25.4011 25.3507L25.3986 25.3544L25.416 25.3857C26.0418 26.8573 33.3417 37.2279 34.5012 38.3014C35.6557 37.2309 42.9558 26.8595 43.5806 25.3938L43.602 25.3553L43.5989 25.3507C44.1448 24.0549 44.4452 22.6634 44.4452 21.2648C44.4452 15.8845 39.9926 11.523 34.5 11.523ZM44.8951 25.9314L45.0153 25.9806C44.3194 27.6133 36.4289 38.8675 35.1418 40.0769H33.8606C32.5678 38.864 24.6779 27.6106 23.9807 25.9713L24.1154 25.9164L24.1469 25.8577L23.9639 25.9316C23.3458 24.4645 23 22.8761 23 21.2648C23 15.0434 28.1487 10 34.5 10C40.8513 10 46 15.0434 46 21.2648C46 22.8761 45.6542 24.4645 45.0361 25.9316L44.8561 25.8589L44.8951 25.9314Z" fill="#E2E2E2"/>
<circle cx="34.5" cy="21.5" r="3.65" fill="#41414D" stroke="#E2E2E2" stroke-width="1.7"/>
<rect x="7.5" y="18.5" width="3" height="4" stroke="#E2E2E2"/>
<rect x="7.5" y="25.5" width="3" height="4" stroke="#E2E2E2"/>
<rect x="7.5" y="32.5" width="3" height="4" stroke="#E2E2E2"/>
</svg>
