<svg width="55" height="55" viewBox="0 0 55 55" fill="none" xmlns="http://www.w3.org/2000/svg">
<rect width="55" height="55" rx="27.5" fill="#459B53"/>
<path d="M41.9601 21.7105C39.5864 16.2789 34.1664 12.4835 27.8613 12.4835C21.5554 12.4835 16.1353 16.2789 13.7625 21.7105" stroke="white" stroke-width="2.05044" stroke-linecap="round" stroke-linejoin="round"/>
<path d="M27.8611 20.1726C26.3983 21.6028 25.2365 23.3113 24.4441 25.1975C23.6518 27.0836 23.245 29.1092 23.2476 31.155C23.2476 31.5395 23.2614 31.9209 23.2899 32.2992C24.7401 33.728 25.8912 35.4313 26.6761 37.3098C27.4609 39.1882 27.8637 41.2042 27.8611 43.24C27.8583 41.2041 28.2611 39.188 29.0459 37.3093C29.8308 35.4307 30.9819 33.7273 32.4323 32.2984C32.6018 30.0661 32.2804 27.8237 31.4907 25.7288C30.701 23.634 29.4621 21.7375 27.8611 20.1726V20.1726Z" stroke="white" stroke-width="2.05044" stroke-linecap="round" stroke-linejoin="round"/>
<path d="M12.4824 27.8617C12.4824 36.3551 19.3673 43.24 27.8607 43.24C27.8635 41.204 27.4607 39.1879 26.6759 37.3093C25.891 35.4307 24.7398 33.7272 23.2895 32.2983C20.414 29.4509 16.5292 27.8561 12.4824 27.8617V27.8617Z" stroke="white" stroke-width="2.05044" stroke-linecap="round" stroke-linejoin="round"/>
<path d="M43.2404 27.8617C43.2404 36.3551 36.3555 43.24 27.8621 43.24C27.8593 41.204 28.2621 39.1879 29.0469 37.3093C29.8318 35.4307 30.983 33.7272 32.4333 32.2983C35.3088 29.4509 39.1936 27.8561 43.2404 27.8617V27.8617Z" stroke="white" stroke-width="2.05044" stroke-linecap="round" stroke-linejoin="round"/>
</svg>
