<svg width="54" height="54" viewBox="0 0 54 54" fill="none" xmlns="http://www.w3.org/2000/svg">
<circle cx="27" cy="27" r="26.5" stroke="#E2E2E2"/>
<mask id="path-2-inside-1_99_17790" fill="white">
<path fill-rule="evenodd" clip-rule="evenodd" d="M1.70215 34.3711C9.19666 29.6947 18.0051 27 27.4296 27C36.6417 27 45.2653 29.5746 52.6485 34.058C49.6112 45.5467 39.3383 54 27.1329 54C15.0387 54 4.8419 45.6999 1.70215 34.3711Z"/>
</mask>
<path fill-rule="evenodd" clip-rule="evenodd" d="M1.70215 34.3711C9.19666 29.6947 18.0051 27 27.4296 27C36.6417 27 45.2653 29.5746 52.6485 34.058C49.6112 45.5467 39.3383 54 27.1329 54C15.0387 54 4.8419 45.6999 1.70215 34.3711Z" fill="#41414D"/>
<path d="M1.70215 34.3711L1.17277 33.5227L0.538937 33.9182L0.738474 34.6382L1.70215 34.3711ZM52.6485 34.058L53.6153 34.3136L53.8063 33.5912L53.1675 33.2033L52.6485 34.058ZM2.23152 35.2195C9.57278 30.6387 18.1987 28 27.4296 28V26C17.8115 26 8.82054 28.7507 1.17277 33.5227L2.23152 35.2195ZM27.4296 28C36.4526 28 44.8974 30.5212 52.1294 34.9128L53.1675 33.2033C45.6332 28.6281 36.8309 26 27.4296 26V28ZM51.6817 33.8024C48.7541 44.8762 38.8602 53 27.1329 53V55C39.8164 55 50.4683 46.2172 53.6153 34.3136L51.6817 33.8024ZM27.1329 53C15.5124 53 5.69215 45.0236 2.66582 34.104L0.738474 34.6382C3.99164 46.3763 14.565 55 27.1329 55V53Z" fill="#E2E2E2" mask="url(#path-2-inside-1_99_17790)"/>
<mask id="mask0_99_17790" style="mask-type:alpha" maskUnits="userSpaceOnUse" x="1" y="1" width="52" height="52">
<circle cx="27" cy="27" r="25.5" fill="#D9D9D9" stroke="#E2E2E2"/>
</mask>
<g mask="url(#mask0_99_17790)">
<path fill-rule="evenodd" clip-rule="evenodd" d="M26 11H50.8571L56.8571 23.5805H54V37.1069H34.9889C34.7675 32.9775 31.2754 29.6958 27 29.6958C22.7246 29.6958 19.2325 32.9775 19.0111 37.1069H11V21.1069H21.1797L26 11Z" fill="#41414D"/>
<path fill-rule="evenodd" clip-rule="evenodd" d="M21.1797 21.1069H11V37.1069H19.0111C19.2325 32.9775 22.7246 29.6958 27 29.6958C31.2754 29.6958 34.7675 32.9775 34.9889 37.1069H54V23.5805H56.8571L50.8571 11H26L21.1797 21.1069ZM26.631 12L21.8107 22.1069H12V36.1069H18.1153C18.808 31.8899 22.5376 28.6958 27 28.6958C31.4624 28.6958 35.192 31.8899 35.8847 36.1069H53V22.5805H55.2723L50.2262 12H26.631Z" fill="#E2E2E2"/>
<path d="M33 38.1069C33 41.4206 30.3137 44.1069 27 44.1069C23.6863 44.1069 21 41.4206 21 38.1069C21 34.7932 23.6863 32.1069 27 32.1069C30.3137 32.1069 33 34.7932 33 38.1069Z" fill="#E2E2E2"/>
<path d="M30 38.1069C30 39.7638 28.6569 41.1069 27 41.1069C25.3431 41.1069 24 39.7638 24 38.1069C24 36.4501 25.3431 35.1069 27 35.1069C28.6569 35.1069 30 36.4501 30 38.1069Z" fill="#41414D"/>
<path fill-rule="evenodd" clip-rule="evenodd" d="M29.1731 13.6069H39.5001V22.6069H25.2356L29.1731 13.6069ZM29.8271 14.6069L26.7646 21.6069H38.5001V14.6069H29.8271Z" fill="#E2E2E2"/>
<path fill-rule="evenodd" clip-rule="evenodd" d="M51.8269 13.6069H41.4999V22.6069H55.7644L51.8269 13.6069ZM51.1729 14.6069L54.2354 21.6069H42.4999V14.6069H51.1729Z" fill="#E2E2E2"/>
</g>
</svg>
