<svg width="64" height="64" viewBox="20 20 64 64" fill="none" xmlns="http://www.w3.org/2000/svg">
<g filter="url(#filter0_d_79_12098)">
<circle cx="52" cy="52" r="32" fill="#ED1A3B"/>
</g>
<rect x="43.1862" y="34.7064" width="22.1545" height="13.4801" fill="white" stroke="white" stroke-width="1.7" stroke-linejoin="bevel"/>
<path fill-rule="evenodd" clip-rule="evenodd" d="M61.4931 38.2659H38V49.5426V54.2411V58.0001L41.8553 54.2411H61.4931V38.2659Z" fill="#ED1A3B"/>
<path d="M38 38.2659V37.4159L37.15 38.2659H38ZM61.4931 38.2659H62.3431L61.4931 37.4159V38.2659ZM38 58.0001H37.15L38.5934 58.6087L38 58.0001ZM41.8553 54.2411V53.3911L41.2619 53.6325L41.8553 54.2411ZM61.4931 54.2411V55.0912L62.3431 54.2411H61.4931ZM38 39.1159H61.4931V37.4159H38V39.1159ZM38.85 49.5426V38.2659H37.15V49.5426H38.85ZM38.85 54.2411V49.5426H37.15V54.2411H38.85ZM38.85 58.0001V54.2411H37.15V58.0001H38.85ZM41.2619 53.6325L37.4066 57.3915L38.5934 58.6087L42.4487 54.8498L41.2619 53.6325ZM61.4931 53.3911H41.8553V55.0912H61.4931V53.3911ZM60.6431 38.2659V54.2411H62.3431V38.2659H60.6431Z" fill="white"/>
<circle cx="43.9626" cy="46.3258" r="1.62644" fill="white"/>
<circle cx="49.3862" cy="46.3258" r="1.62644" fill="white"/>
<circle cx="54.8074" cy="46.3258" r="1.62644" fill="white"/>
<path d="M45.7588 64.3291V64.3184H47.4131V63.5127H45.7588V62.4277H44.792V63.5127H43.1162V64.3184H44.792V64.3291C44.7866 65.4785 44.1206 66.6172 42.8906 67.1221L43.3955 67.874C44.3247 67.4873 44.9639 66.7515 45.3022 65.8599C45.646 66.6655 46.2798 67.3315 47.1875 67.6807L47.6709 66.9072C46.4463 66.4453 45.7588 65.3926 45.7588 64.3291ZM44.0615 71.0752L44.4268 71.8701C45.9253 71.6338 47.1982 70.9194 47.7998 69.9043C48.3906 70.9194 49.6636 71.6338 51.1729 71.8701L51.5273 71.0752C49.7334 70.8174 48.3047 69.7754 48.3047 68.5938V68.3789H47.2842V68.5938C47.2788 69.7754 45.8662 70.8174 44.0615 71.0752ZM48.0146 67.96H48.9922V65.543H50.0879V68.7979H51.0547V62.2988H50.0879V64.6943H48.9922V62.46H48.0146V67.96ZM54.5137 62.5459H53.5039V66.1123H56.2432V67.1006H52.3545V67.917H61.1309V67.1006H57.2422V66.1123H59.9922V62.5459H58.9717V63.5449H54.5137V62.5459ZM53.0098 71.0752L53.3857 71.8701C54.895 71.6392 56.1465 70.9893 56.7373 70.0225C57.3281 70.9893 58.585 71.6392 60.1104 71.8701L60.4756 71.0752C58.6011 70.8442 57.2476 69.8989 57.2529 68.7441V68.5078H56.2217V68.7441C56.2163 69.8989 54.8628 70.8442 53.0098 71.0752ZM54.5137 65.3066V64.3291H58.9717V65.3066H54.5137Z" fill="white"/>
<defs>
<filter id="filter0_d_79_12098" x="0" y="0" width="104" height="104" filterUnits="userSpaceOnUse" color-interpolation-filters="sRGB">
<feFlood flood-opacity="0" result="BackgroundImageFix"/>
<feColorMatrix in="SourceAlpha" type="matrix" values="0 0 0 0 0 0 0 0 0 0 0 0 0 0 0 0 0 0 127 0" result="hardAlpha"/>
<feOffset/>
<feGaussianBlur stdDeviation="10"/>
<feComposite in2="hardAlpha" operator="out"/>
<feColorMatrix type="matrix" values="0 0 0 0 0 0 0 0 0 0 0 0 0 0 0 0 0 0 0.1 0"/>
<feBlend mode="normal" in2="BackgroundImageFix" result="effect1_dropShadow_79_12098"/>
<feBlend mode="normal" in="SourceGraphic" in2="effect1_dropShadow_79_12098" result="shape"/>
</filter>
</defs>
</svg>
