<svg width="68" height="68" viewBox="0 0 68 68" fill="none" xmlns="http://www.w3.org/2000/svg">
<circle cx="33" cy="38" r="24" fill="#E2E2E2"/>
<rect x="21.5" y="13.5" width="42" height="32" fill="#41414D" stroke="#E2E2E2"/>
<rect x="25.5" y="17.5" width="34" height="24" fill="#41414D" stroke="#E2E2E2"/>
<rect x="5.5" y="21.5" width="31" height="38" fill="#41414D" stroke="#E2E2E2"/>
<rect x="8.5" y="24.5" width="25" height="32" fill="#41414D" stroke="#E2E2E2"/>
<circle cx="22.5" cy="34.5" r="4" stroke="#E2E2E2"/>
<path d="M20.5 38L19.8036 38.4643C17.4273 40.0484 16 42.7154 16 45.5714V47.1951C16 48.658 15.3607 50.0479 14.25 51V51C13.1393 51.9521 12.5 53.342 12.5 54.8049V57" stroke="#E2E2E2"/>
<path d="M26 36.5V56.5" stroke="#E2E2E2"/>
<path d="M36.5 27.5C40.1667 23.6667 49.9 18.3 59.5 27.5" stroke="#E2E2E2"/>
</svg>
