<svg width="289" height="55" viewBox="0 0 289 55" fill="none" xmlns="http://www.w3.org/2000/svg">
<path fill-rule="evenodd" clip-rule="evenodd" d="M289 0H0V45H36.5455L42 55L47.4545 45H289V0Z" fill="#3B3B45"/>
<path d="M30.8652 29.3037H29.2979V16.0615H30.8652V29.3037ZM19.5713 21.7891C19.5713 20.8271 19.6885 19.9922 19.9229 19.2842C20.1572 18.5713 20.4893 18.0244 20.9189 17.6436C21.3535 17.2627 21.8564 17.0723 22.4277 17.0723C22.9844 17.0674 23.4751 17.2407 23.8999 17.5923C24.3247 17.9438 24.6616 18.4443 24.9106 19.0938H26.6465V16.2959H28.1846V28.6592H26.6465V24.4844H24.9106C24.6665 25.1387 24.3296 25.644 23.8999 26.0005C23.4751 26.3521 22.9844 26.5254 22.4277 26.5205C21.8564 26.5205 21.3535 26.3301 20.9189 25.9492C20.4893 25.5684 20.1572 25.0215 19.9229 24.3086C19.6885 23.5908 19.5713 22.751 19.5713 21.7891ZM21.0654 21.7891C21.0605 22.8193 21.1753 23.6079 21.4097 24.1548C21.6489 24.7017 21.9883 24.9727 22.4277 24.9678C22.8721 24.9727 23.2188 24.7017 23.4678 24.1548C23.7217 23.603 23.8486 22.8145 23.8486 21.7891C23.8486 20.7686 23.7217 19.9824 23.4678 19.4307C23.2188 18.8789 22.8721 18.6055 22.4277 18.6104C21.9883 18.6055 21.6489 18.8789 21.4097 19.4307C21.1753 19.9775 21.0605 20.7637 21.0654 21.7891ZM25.2402 20.4121C25.3086 20.8516 25.3428 21.3105 25.3428 21.7891C25.3428 22.2383 25.311 22.6924 25.2476 23.1514H26.6465V20.4121H25.2402ZM43.8291 29.3037H42.2617V22.5215H40.8555V28.6592H39.3174V16.2959H40.8555V21.1738H42.2617V16.0615H43.8291V29.3037ZM32.8135 17.4971H38.0137V25.8906H32.8135V17.4971ZM36.4902 24.6016V18.7861H34.3369V24.6016H36.4902ZM55.7383 21.2324H57.7012V22.5947H55.7383V29.2744H54.1123V16.0615H55.7383V21.2324ZM45.2939 25.6562C46.9102 24.8506 48.1553 23.8813 49.0293 22.7485C49.9033 21.6108 50.4209 20.29 50.582 18.7861H46.0117V17.4385H52.2373C52.2275 21.7842 50.2207 24.9434 46.2168 26.916L45.2939 25.6562ZM65.8896 16.6328C66.5293 16.6328 67.1006 16.7451 67.6035 16.9697C68.1064 17.1943 68.4995 17.5093 68.7827 17.9146C69.0659 18.3149 69.21 18.7764 69.2148 19.2988C69.21 19.7334 69.1025 20.1289 68.8926 20.4854C68.6875 20.8418 68.3994 21.1421 68.0283 21.3862C67.6572 21.6255 67.2275 21.7891 66.7393 21.877V22.9463C67.9795 22.873 69.0586 22.7705 69.9766 22.6387L70.1084 23.8252C68.9268 24.0352 67.6865 24.1792 66.3877 24.2573C65.0889 24.3306 63.751 24.3672 62.374 24.3672H62.0371L61.8613 23.0635C63.082 23.0635 64.1611 23.0488 65.0986 23.0195V21.8843C64.5957 21.8013 64.1538 21.6401 63.7729 21.4009C63.3921 21.1616 63.0967 20.8613 62.8867 20.5C62.6816 20.1387 62.5791 19.7383 62.5791 19.2988C62.5791 18.7764 62.7183 18.3149 62.9966 17.9146C63.2798 17.5093 63.6729 17.1943 64.1758 16.9697C64.6787 16.7451 65.25 16.6328 65.8896 16.6328ZM63.6777 25.29H65.3037V27.707H72.8477V29.0254H63.6777V25.29ZM64.1025 19.2988C64.0977 19.582 64.1709 19.8311 64.3223 20.0459C64.4736 20.2607 64.6836 20.4268 64.9521 20.5439C65.2256 20.6611 65.5381 20.7197 65.8896 20.7197C66.4268 20.7148 66.8564 20.5854 67.1787 20.3315C67.5059 20.0776 67.6719 19.7334 67.6768 19.2988C67.6719 18.8594 67.5059 18.5127 67.1787 18.2588C66.8564 18.0049 66.4268 17.8779 65.8896 17.8779C65.5381 17.8779 65.2256 17.9341 64.9521 18.0464C64.6836 18.1587 64.4736 18.3223 64.3223 18.5371C64.1709 18.752 64.0977 19.0059 64.1025 19.2988ZM70.7529 16.0762H72.3789V20.3535H74.166V21.7012H72.3789V26.1836H70.7529V16.0762ZM86.9541 27.7656H74.8545V26.418H78.0625V24.2354H76.29V19.9141H83.9072V18.2881H76.2607V16.9697H85.5186V21.2178H77.916V22.917H85.8262V24.2354H83.8926V26.418H86.9541V27.7656ZM82.2959 26.418V24.2354H79.6445V26.418H82.2959ZM95.6992 22.873H93.0186V25.1802C94.2051 25.1362 95.3428 25.0557 96.4316 24.9385L96.5635 26.1396C95.2695 26.3301 93.9512 26.4546 92.6084 26.5132C91.2656 26.5718 89.7568 26.6035 88.082 26.6084L87.877 25.2607H88.7119C89.5762 25.2607 90.4697 25.2534 91.3926 25.2388V22.873H88.7998V17.2773H95.6406V18.5664H90.4111V21.5547H95.6992V22.873ZM97.2227 16.0615H98.8486V29.3184H97.2227V16.0615ZM105.631 24.6455C105.621 25.2314 105.753 25.793 106.026 26.3301C106.3 26.8623 106.712 27.3091 107.264 27.6704C107.806 27.2944 108.219 26.833 108.502 26.2861C108.785 25.7344 108.932 25.1875 108.941 24.6455V24.0303H110.538V24.6455C110.533 25.1191 110.624 25.5708 110.809 26.0005C111 26.4302 111.288 26.811 111.673 27.1431C112.064 27.4751 112.545 27.7314 113.116 27.9121L112.296 29.1279C111.666 28.9082 111.136 28.5957 110.707 28.1904C110.277 27.7852 109.945 27.3066 109.71 26.7549C109.476 27.3115 109.156 27.8047 108.751 28.2344C108.346 28.6641 107.853 28.9961 107.271 29.2305C106.676 29.0059 106.173 28.686 105.763 28.271C105.357 27.856 105.045 27.3701 104.825 26.8135C104.581 27.3408 104.247 27.8022 103.822 28.1978C103.397 28.5981 102.887 28.9082 102.291 29.1279L101.5 27.9121C102.052 27.7217 102.518 27.4556 102.899 27.1138C103.28 26.772 103.565 26.3887 103.756 25.9639C103.946 25.5342 104.044 25.0947 104.049 24.6455V24.0303H105.631V24.6455ZM100.958 19.9141C100.958 19.3135 101.109 18.7739 101.412 18.2954C101.715 17.8169 102.132 17.4434 102.665 17.1748C103.202 16.9014 103.8 16.7646 104.459 16.7646C105.016 16.7646 105.531 16.8672 106.004 17.0723C106.483 17.2773 106.881 17.5679 107.198 17.9438C107.521 18.3149 107.738 18.7422 107.85 19.2256H110.245V16.0615H111.871V23.5322H110.245V20.5439H107.865C107.762 21.042 107.55 21.4814 107.228 21.8623C106.91 22.2432 106.51 22.5386 106.026 22.7485C105.548 22.9585 105.025 23.0635 104.459 23.0635C103.795 23.0635 103.197 22.9292 102.665 22.6606C102.132 22.3921 101.715 22.0186 101.412 21.54C101.109 21.0615 100.958 20.5195 100.958 19.9141ZM102.525 19.9141C102.525 20.2656 102.606 20.5781 102.767 20.8516C102.933 21.125 103.163 21.3374 103.456 21.4888C103.753 21.6401 104.088 21.7158 104.459 21.7158C104.82 21.7158 105.145 21.6401 105.433 21.4888C105.726 21.3374 105.953 21.125 106.114 20.8516C106.28 20.5781 106.363 20.2656 106.363 19.9141C106.363 19.5576 106.28 19.2451 106.114 18.9766C105.953 18.7031 105.726 18.4932 105.433 18.3467C105.145 18.2002 104.82 18.127 104.459 18.127C104.088 18.127 103.753 18.2002 103.456 18.3467C103.163 18.4932 102.933 18.7031 102.767 18.9766C102.606 19.2451 102.525 19.5576 102.525 19.9141ZM116.808 25.2607H122.638V24.001H124.264V29.1426H115.196V24.001H116.808V25.2607ZM113.746 21.9209H125.816V23.2539H113.746V21.9209ZM114.361 19.9434C115.26 19.8311 116.056 19.6138 116.749 19.2915C117.447 18.9692 117.987 18.5811 118.368 18.127C118.749 17.6729 118.941 17.1992 118.946 16.7061V16.208H120.616V16.7061C120.616 17.1846 120.807 17.6533 121.188 18.1123C121.573 18.5713 122.113 18.9668 122.806 19.2988C123.5 19.626 124.288 19.8408 125.172 19.9434L124.601 21.2324C123.502 21.0859 122.53 20.7808 121.686 20.3169C120.846 19.853 120.211 19.2817 119.781 18.603C119.352 19.2817 118.714 19.853 117.87 20.3169C117.025 20.7759 116.056 21.0811 114.962 21.2324L114.361 19.9434ZM122.638 27.8535V26.5059H116.808V27.8535H122.638ZM137.755 29.3037H136.144V16.0615H137.755V29.3037ZM127.472 17.3506H129.083V24.5869C131.168 24.5527 133.126 24.3525 134.957 23.9863L135.162 25.3486C133.102 25.7783 130.919 25.9883 128.614 25.9785H127.472V17.3506ZM150.045 21.0859H152.081V22.4189H150.045V29.3184H148.419V16.0615H150.045V21.0859ZM140.216 17.3213H146.412V18.6396H141.842V24.7188C142.916 24.7139 143.883 24.6797 144.742 24.6162C145.602 24.5527 146.471 24.4453 147.35 24.2939L147.54 25.6709C146.578 25.8369 145.631 25.9468 144.698 26.0005C143.766 26.0542 142.638 26.0811 141.314 26.0811H140.216V17.3213ZM155.201 24.8799H153.546L153.37 17.3945H155.362L155.201 24.8799ZM153.238 26.9746C153.238 26.7744 153.29 26.5889 153.392 26.418C153.495 26.2422 153.634 26.103 153.81 26.0005C153.985 25.8979 154.176 25.8467 154.381 25.8467C154.581 25.8467 154.767 25.8979 154.938 26.0005C155.113 26.103 155.252 26.2422 155.355 26.418C155.458 26.5889 155.509 26.7744 155.509 26.9746C155.509 27.1797 155.458 27.3701 155.355 27.5459C155.252 27.7217 155.113 27.8608 154.938 27.9634C154.767 28.0659 154.581 28.1172 154.381 28.1172C154.176 28.1172 153.985 28.0659 153.81 27.9634C153.634 27.8608 153.495 27.7217 153.392 27.5459C153.29 27.3701 153.238 27.1797 153.238 26.9746Z" fill="white"/>
<path d="M194.055 27.9902H193.28V16.793H194.055V27.9902ZM184.647 21.6172C184.647 20.8428 184.747 20.1678 184.946 19.5923C185.145 19.0125 185.422 18.5661 185.777 18.2529C186.137 17.9398 186.556 17.7832 187.034 17.7832C187.517 17.7832 187.938 17.9398 188.297 18.2529C188.661 18.5661 188.943 19.0104 189.142 19.5859H191.071V17.0469H191.846V27.4062H191.071V23.6484H189.142C188.943 24.224 188.661 24.6704 188.297 24.9878C187.938 25.3009 187.517 25.4554 187.034 25.4512C186.556 25.4512 186.137 25.2946 185.777 24.9814C185.422 24.6683 185.145 24.224 184.946 23.6484C184.747 23.0687 184.647 22.3916 184.647 21.6172ZM185.396 21.6172C185.396 22.2266 185.464 22.7661 185.6 23.2358C185.735 23.7013 185.925 24.0632 186.171 24.3213C186.416 24.5752 186.704 24.7021 187.034 24.7021C187.364 24.7021 187.654 24.5752 187.904 24.3213C188.153 24.0632 188.346 23.7013 188.481 23.2358C188.617 22.7661 188.685 22.2266 188.685 21.6172C188.685 21.0036 188.617 20.464 188.481 19.9985C188.346 19.533 188.153 19.1733 187.904 18.9194C187.654 18.6613 187.364 18.5322 187.034 18.5322C186.704 18.5322 186.416 18.6592 186.171 18.9131C185.925 19.167 185.735 19.5288 185.6 19.9985C185.464 20.464 185.396 21.0036 185.396 21.6172ZM189.319 20.2588C189.404 20.682 189.446 21.1348 189.446 21.6172C189.446 22.0996 189.404 22.5482 189.319 22.9629H191.071V20.2588H189.319ZM205.29 27.9902H204.516V21.96H202.764V27.4062H202.002V17.0469H202.764V21.2744H204.516V16.793H205.29V27.9902ZM196.175 18.1387H200.415V24.9053H196.175V18.1387ZM199.653 24.2451V18.7988H196.924V24.2451H199.653ZM219.306 27.9902H218.519V16.793H219.306V27.9902ZM210.279 25.1592C211.799 24.4398 212.973 23.5257 213.802 22.417C214.632 21.3083 215.097 20.0641 215.199 18.6846H210.774V18.0244H216.005C216.001 19.1035 215.81 20.1255 215.434 21.0903C215.061 22.0509 214.481 22.9354 213.694 23.7437C212.911 24.5477 211.921 25.2396 210.724 25.8193L210.279 25.1592ZM231.569 23.6865H221.324V23.001H226.047V21.6934H222.67V19.0781H229.437V17.7578H222.632V17.0977H230.236V19.7002H223.457V21.0332H230.478V21.6934H226.834V23.001H231.569V23.6865ZM222.467 24.6133H230.3V27.8633H229.487V25.2861H222.467V24.6133ZM244.379 20.2461H246.131V20.9316H244.379V24.2578H243.579V16.793H244.379V20.2461ZM235.67 23.2168C237.011 23.2168 238.061 23.2062 238.818 23.1851V22.3027C238.37 22.2646 237.98 22.1758 237.65 22.0361C237.32 21.8923 237.066 21.7039 236.889 21.4712C236.711 21.2342 236.622 20.9613 236.622 20.6523C236.622 20.3138 236.728 20.0197 236.939 19.77C237.155 19.5203 237.458 19.3299 237.847 19.1987C238.241 19.0675 238.696 19.002 239.212 19.002C239.728 19.002 240.181 19.0675 240.57 19.1987C240.96 19.3299 241.26 19.5203 241.472 19.77C241.688 20.0197 241.798 20.3138 241.802 20.6523C241.798 20.9613 241.707 21.2342 241.529 21.4712C241.351 21.7039 241.097 21.8923 240.767 22.0361C240.441 22.1758 240.058 22.2625 239.618 22.2964V23.1533C240.812 23.0983 241.882 22.9967 242.83 22.8486L242.894 23.4453C241.819 23.64 240.712 23.7648 239.574 23.8198C238.435 23.8748 237.172 23.9023 235.784 23.9023L235.67 23.2168ZM235.962 17.8721H238.818V16.7041H239.618V17.8721H242.475V18.5068H235.962V17.8721ZM237.041 24.8672H244.379V27.9902H243.579V25.5146H237.041V24.8672ZM237.384 20.6523C237.384 20.8597 237.458 21.0459 237.606 21.2109C237.754 21.3717 237.968 21.4987 238.247 21.5918C238.526 21.6807 238.848 21.723 239.212 21.7188C239.572 21.723 239.889 21.6807 240.164 21.5918C240.443 21.4987 240.659 21.3717 240.812 21.2109C240.964 21.0459 241.04 20.8597 241.04 20.6523C241.04 20.4365 240.964 20.2482 240.812 20.0874C240.663 19.9266 240.454 19.8039 240.183 19.7192C239.912 19.6304 239.597 19.5859 239.237 19.5859C238.861 19.5859 238.533 19.6304 238.253 19.7192C237.974 19.8039 237.758 19.9266 237.606 20.0874C237.458 20.2482 237.384 20.4365 237.384 20.6523ZM256.147 25.0322H255.348V16.793H256.147V25.0322ZM247.235 20.3223C247.235 19.7975 247.36 19.3299 247.61 18.9194C247.86 18.5047 248.204 18.1831 248.645 17.9546C249.085 17.7218 249.58 17.6055 250.13 17.6055C250.676 17.6055 251.169 17.7218 251.609 17.9546C252.049 18.1831 252.394 18.5047 252.644 18.9194C252.897 19.3299 253.024 19.7975 253.024 20.3223C253.024 20.8512 252.897 21.3252 252.644 21.7441C252.394 22.1589 252.049 22.4805 251.609 22.709C251.169 22.9375 250.676 23.0518 250.13 23.0518C249.58 23.0518 249.085 22.9375 248.645 22.709C248.204 22.4805 247.86 22.1589 247.61 21.7441C247.36 21.3252 247.235 20.8512 247.235 20.3223ZM248.01 20.3223C248.01 20.7074 248.101 21.0544 248.283 21.3633C248.469 21.6722 248.723 21.9134 249.044 22.0869C249.37 22.2562 249.732 22.3408 250.13 22.3408C250.523 22.3408 250.881 22.2562 251.203 22.0869C251.528 21.9134 251.785 21.6722 251.971 21.3633C252.157 21.0544 252.25 20.7074 252.25 20.3223C252.25 19.9414 252.157 19.5986 251.971 19.2939C251.785 18.985 251.528 18.7438 251.203 18.5703C250.881 18.3926 250.523 18.3037 250.13 18.3037C249.732 18.3037 249.37 18.3926 249.044 18.5703C248.723 18.7438 248.469 18.985 248.283 19.2939C248.101 19.5986 248.01 19.9414 248.01 20.3223ZM249 24.1816H249.8V27.0508H256.516V27.7236H249V24.1816Z" fill="#E2E2E2"/>
<path d="M267 16L273 22.5L267 29" stroke="#E2E2E2" stroke-linejoin="bevel"/>
</svg>
