<svg width="69" height="51" viewBox="0 0 69 51" fill="none" xmlns="http://www.w3.org/2000/svg">
<mask id="path-1-inside-1_99_17427" fill="white">
<path fill-rule="evenodd" clip-rule="evenodd" d="M20.3932 14.6136C17.4146 17.5922 17.4146 22.4214 20.3932 25.4L34.0046 39.0114L44.791 28.225L44.79 28.224L47.617 25.397C50.5956 22.4184 50.5956 17.5892 47.617 14.6106C44.6384 11.632 39.8092 11.632 36.8306 14.6106L34.0036 17.4376L31.1796 14.6136C28.201 11.6351 23.3718 11.6351 20.3932 14.6136Z"/>
</mask>
<path d="M34.0046 39.0114L32.7318 40.2842L34.0046 41.557L35.2774 40.2842L34.0046 39.0114ZM44.791 28.225L46.0638 29.4978L47.3366 28.225L46.0638 26.9522L44.791 28.225ZM44.79 28.224L43.5172 26.9512L42.2444 28.224L43.5172 29.4968L44.79 28.224ZM47.617 14.6106L48.8898 13.3378L47.617 14.6106ZM36.8306 14.6106L35.5578 13.3378L36.8306 14.6106ZM34.0036 17.4376L32.7308 18.7104L34.0036 19.9832L35.2764 18.7104L34.0036 17.4376ZM21.666 24.1272C19.3903 21.8516 19.3904 18.1621 21.666 15.8864L19.1204 13.3408C15.4389 17.0224 15.4389 22.9913 19.1204 26.6728L21.666 24.1272ZM35.2774 37.7386L21.666 24.1272L19.1204 26.6728L32.7318 40.2842L35.2774 37.7386ZM43.5182 26.9522L32.7318 37.7386L35.2774 40.2842L46.0638 29.4978L43.5182 26.9522ZM43.5172 29.4968L43.5182 29.4978L46.0638 26.9522L46.0628 26.9512L43.5172 29.4968ZM46.3442 24.1242L43.5172 26.9512L46.0628 29.4968L48.8898 26.6698L46.3442 24.1242ZM46.3442 15.8834C48.6198 18.1591 48.6198 21.8486 46.3442 24.1242L48.8898 26.6698C52.5713 22.9883 52.5713 17.0194 48.8898 13.3378L46.3442 15.8834ZM38.1034 15.8834C40.379 13.6078 44.0686 13.6078 46.3442 15.8834L48.8898 13.3378C45.2082 9.65631 39.2393 9.6563 35.5578 13.3378L38.1034 15.8834ZM35.2764 18.7104L38.1034 15.8834L35.5578 13.3378L32.7308 16.1648L35.2764 18.7104ZM29.9068 15.8864L32.7308 18.7104L35.2764 16.1648L32.4524 13.3408L29.9068 15.8864ZM21.666 15.8864C23.9416 13.6108 27.6312 13.6108 29.9068 15.8864L32.4524 13.3408C28.7709 9.65932 22.8019 9.65932 19.1204 13.3408L21.666 15.8864Z" fill="#232323" mask="url(#path-1-inside-1_99_17427)"/>
</svg>
