<svg width="69" height="51" viewBox="0 0 69 51" fill="none" xmlns="http://www.w3.org/2000/svg">
<mask id="path-1-inside-1_99_17358" fill="white">
<path fill-rule="evenodd" clip-rule="evenodd" d="M13 13H56V21C53.7909 21 52 22.7909 52 25C52 27.2091 53.7909 29 56 29V37H13V29C15.2091 29 17 27.2091 17 25C17 22.7909 15.2091 21 13 21V13Z"/>
</mask>
<path d="M56 13H57.7V11.3H56V13ZM13 13V11.3H11.3V13H13ZM56 21V22.7H57.7V21H56ZM56 29H57.7V27.3H56V29ZM56 37V38.7H57.7V37H56ZM13 37H11.3V38.7H13V37ZM13 29V27.3H11.3V29H13ZM13 21H11.3V22.7H13V21ZM56 11.3H13V14.7H56V11.3ZM57.7 21V13H54.3V21H57.7ZM53.7 25C53.7 23.7297 54.7297 22.7 56 22.7V19.3C52.852 19.3 50.3 21.852 50.3 25H53.7ZM56 27.3C54.7297 27.3 53.7 26.2703 53.7 25H50.3C50.3 28.148 52.852 30.7 56 30.7V27.3ZM57.7 37V29H54.3V37H57.7ZM13 38.7H56V35.3H13V38.7ZM11.3 29V37H14.7V29H11.3ZM15.3 25C15.3 26.2703 14.2703 27.3 13 27.3V30.7C16.148 30.7 18.7 28.148 18.7 25H15.3ZM13 22.7C14.2703 22.7 15.3 23.7297 15.3 25H18.7C18.7 21.852 16.148 19.3 13 19.3V22.7ZM11.3 13V21H14.7V13H11.3Z" fill="#232323" mask="url(#path-1-inside-1_99_17358)"/>
<path d="M26 15V35" stroke="#232323" stroke-width="1.7" stroke-linecap="square" stroke-dasharray="2.5 2.5"/>
</svg>
